<mxfile host="app.diagrams.net" modified="2023-01-02T19:19:40.640Z" agent="5.0 (Windows)" etag="4rKViucSB_GVGSRsQh8I" version="20.5.1" type="github">
  <diagram name="Page-1" id="e7e014a7-5840-1c2e-5031-d8a46d1fe8dd">
    <mxGraphModel dx="1038" dy="536" grid="1" gridSize="10" guides="1" tooltips="1" connect="1" arrows="1" fold="1" page="1" pageScale="1" pageWidth="1169" pageHeight="826" background="none" math="0" shadow="0">
      <root>
        <mxCell id="0" />
        <mxCell id="1" parent="0" />
        <mxCell id="2" value="Administrator" style="swimlane;whiteSpace=wrap" parent="1" vertex="1">
          <mxGeometry x="20" y="128" width="424.5" height="570" as="geometry" />
        </mxCell>
        <mxCell id="12" value="" style="edgeStyle=elbowEdgeStyle;elbow=horizontal;strokeColor=#FF0000;endArrow=open;endFill=1;rounded=0" parent="2" source="10" edge="1">
          <mxGeometry width="100" height="100" relative="1" as="geometry">
            <mxPoint x="160" y="290" as="sourcePoint" />
            <mxPoint x="115" y="135" as="targetPoint" />
            <Array as="points">
              <mxPoint x="30" y="250" />
            </Array>
          </mxGeometry>
        </mxCell>
        <mxCell id="dBgh0t9pDxQGnR2ba0j--41" value="" style="ellipse;html=1;shape=startState;fillColor=#000000;strokeColor=#ff0000;" vertex="1" parent="2">
          <mxGeometry x="105.5" y="35" width="30" height="30" as="geometry" />
        </mxCell>
        <mxCell id="dBgh0t9pDxQGnR2ba0j--42" value="" style="edgeStyle=orthogonalEdgeStyle;html=1;verticalAlign=bottom;endArrow=open;endSize=8;strokeColor=#ff0000;rounded=0;" edge="1" parent="2">
          <mxGeometry relative="1" as="geometry">
            <mxPoint x="120.5" y="118" as="targetPoint" />
            <mxPoint x="120.5" y="62" as="sourcePoint" />
          </mxGeometry>
        </mxCell>
        <mxCell id="dBgh0t9pDxQGnR2ba0j--45" value="have account?" style="rhombus;fillColor=#ffffc0;strokeColor=#ff0000;" vertex="1" parent="2">
          <mxGeometry x="70.25" y="119" width="100.5" height="58" as="geometry" />
        </mxCell>
        <mxCell id="dBgh0t9pDxQGnR2ba0j--49" value="&lt;font style=&quot;font-size: 14px;&quot; color=&quot;#FF0000&quot;&gt;No&lt;/font&gt;" style="text;html=1;strokeColor=none;fillColor=none;align=center;verticalAlign=middle;whiteSpace=wrap;rounded=0;" vertex="1" parent="2">
          <mxGeometry x="240" y="119" width="60" height="30" as="geometry" />
        </mxCell>
        <mxCell id="dBgh0t9pDxQGnR2ba0j--51" value="&lt;span&gt;Register &lt;/span&gt;" style="rounded=1;whiteSpace=wrap;html=1;fontSize=14;fontColor=#000000;" vertex="1" parent="2">
          <mxGeometry x="250" y="202" width="100" height="38" as="geometry" />
        </mxCell>
        <mxCell id="dBgh0t9pDxQGnR2ba0j--53" value="" style="rhombus;whiteSpace=wrap;html=1;fontSize=14;fillColor=#f8cecc;strokeColor=#b85450;" vertex="1" parent="2">
          <mxGeometry x="260" y="285" width="80" height="80" as="geometry" />
        </mxCell>
        <mxCell id="3" value="Coach" style="swimlane;whiteSpace=wrap" parent="1" vertex="1">
          <mxGeometry x="444.5" y="128" width="280" height="570" as="geometry" />
        </mxCell>
        <mxCell id="4" value="Participant" style="swimlane;whiteSpace=wrap" parent="1" vertex="1">
          <mxGeometry x="724.5" y="128" width="280" height="570" as="geometry" />
        </mxCell>
        <mxCell id="38" value="" style="ellipse;shape=endState;fillColor=#000000;strokeColor=#ff0000" parent="4" vertex="1">
          <mxGeometry x="130" y="500" width="30" height="30" as="geometry" />
        </mxCell>
        <mxCell id="39" value="" style="endArrow=open;strokeColor=#FF0000;endFill=1;rounded=0" parent="4" target="38" edge="1">
          <mxGeometry relative="1" as="geometry">
            <mxPoint x="145" y="430" as="sourcePoint" />
          </mxGeometry>
        </mxCell>
        <mxCell id="dBgh0t9pDxQGnR2ba0j--48" style="edgeStyle=orthogonalEdgeStyle;rounded=0;orthogonalLoop=1;jettySize=auto;html=1;strokeColor=#FF0000;" edge="1" parent="1" source="dBgh0t9pDxQGnR2ba0j--45">
          <mxGeometry relative="1" as="geometry">
            <mxPoint x="320" y="330" as="targetPoint" />
          </mxGeometry>
        </mxCell>
        <mxCell id="dBgh0t9pDxQGnR2ba0j--52" style="edgeStyle=orthogonalEdgeStyle;rounded=0;orthogonalLoop=1;jettySize=auto;html=1;strokeColor=#FF0000;fontSize=14;fontColor=#000000;" edge="1" parent="1">
          <mxGeometry relative="1" as="geometry">
            <mxPoint x="320" y="409" as="targetPoint" />
            <mxPoint x="320" y="368" as="sourcePoint" />
          </mxGeometry>
        </mxCell>
      </root>
    </mxGraphModel>
  </diagram>
</mxfile>
